# Export of Yokohama_light
# from Aaro4130 OBJ Exporter v2.0
mtllib unityexport7.mtl
g Baked Mesh 127
v -387.4141 81.67969 -758.5254
v -408.2578 81.67969 -793.4238
v -397.1523 81.67969 -783.4785
v -397.1523 81.67969 -783.4785
v -408.2578 81.67969 -793.4238
v -361.6289 81.67969 -823.4766
v -387.4141 81.67969 -758.5254
v -397.1523 81.67969 -783.4785
v -382.7383 81.67969 -761.5938
v -342 81.67969 -788.3164
v -356.4688 81.67969 -810.2793
v -337.6836 81.67969 -791.1504
v -387.4141 81.67969 -758.5254
v -410.2773 81.67969 -792.252
v -408.2578 81.67969 -793.4238
v -337.6836 81.67969 -791.1504
v -356.4688 81.67969 -810.2793
v -361.6289 81.67969 -823.4766
v -397.1523 81.67969 -783.4785
v -361.6289 81.67969 -823.4766
v -356.4688 81.67969 -810.2793
v -363.3281 81.67969 -732.1289
v -322.6445 81.67969 -758.9316
v -314.832 81.67969 -756.3184
v -322.6445 81.67969 -758.9316
v -342 81.67969 -788.3164
v -337.6836 81.67969 -791.1504
v -314.832 81.67969 -756.3184
v -322.6445 81.67969 -758.9316
v -337.6836 81.67969 -791.1504
v -364.1406 81.67969 -724.1875
v -387.4141 81.67969 -758.5254
v -363.3281 81.67969 -732.1289
v -364.1406 81.67969 -724.1875
v -363.3281 81.67969 -732.1289
v -314.832 81.67969 -756.3184
v -363.3281 81.67969 -732.1289
v -387.4141 81.67969 -758.5254
v -382.7383 81.67969 -761.5938
v -363.3281 87.72266 -732.1289
v -397.1523 87.72266 -783.4785
v -371.5898 87.72266 -769.8086
v -322.6445 87.72266 -758.9316
v -354.6992 87.72266 -781.3008
v -356.4688 87.72266 -810.2793
v -354.6992 87.72266 -781.3008
v -397.1523 87.72266 -783.4785
v -356.4688 87.72266 -810.2793
v -371.5898 87.72266 -769.8086
v -397.1523 87.72266 -783.4785
v -354.6992 87.72266 -781.3008
v -364.1406 9.390625 -724.1875
v -314.832 9.390625 -756.3184
v -311.4766 9.390625 -755.3672
v -314.832 9.390625 -756.3184
v -337.6836 9.390625 -791.1504
v -335.7734 9.390625 -792.4023
v -359.3828 91.4375 -751.8652
v -371.5898 91.4375 -769.8086
v -342.4922 91.4375 -763.3574
v -354.6992 91.4375 -781.3008
v -337.6836 81.67969 -791.1504
v -361.6289 81.67969 -823.4766
v -359.6914 81.67969 -824.6992
v -408.2578 81.67969 -793.4238
v -363.0156 81.67969 -825.4824
v -361.6289 81.67969 -823.4766
v -408.2578 81.67969 -793.4238
v -409.5625 81.67969 -795.3262
v -363.0156 81.67969 -825.4824
v -359.3828 87.72266 -751.8652
v -342.4922 87.72266 -763.3574
v -322.6445 87.72266 -758.9316
v -363.3281 87.72266 -732.1289
v -359.3828 87.72266 -751.8652
v -322.6445 87.72266 -758.9316
v -363.3281 87.72266 -732.1289
v -371.5898 87.72266 -769.8086
v -359.3828 87.72266 -751.8652
v -322.6445 87.72266 -758.9316
v -342.4922 87.72266 -763.3574
v -354.6992 87.72266 -781.3008
v -311.4766 9.390625 -755.3672
v -314.832 9.390625 -756.3184
v -335.7734 9.390625 -792.4023
v -359.6914 9.390625 -824.6992
v -363.0156 9.390625 -825.4824
v -360.0703 9.390625 -829.4375
v -409.5625 9.390625 -795.3262
v -360.0703 9.390625 -829.4375
v -363.0156 9.390625 -825.4824
v -410.2773 9.390625 -792.252
v -413.7617 9.390625 -794.2148
v -409.5625 9.390625 -795.3262
v -361.6289 9.390625 -823.4766
v -363.0156 9.390625 -825.4824
v -359.6914 9.390625 -824.6992
v -337.6836 9.390625 -791.1504
v -359.6914 9.390625 -824.6992
v -335.7734 9.390625 -792.4023
v -335.7734 9.390625 -792.4023
v -359.6914 9.390625 -824.6992
v -360.0703 9.390625 -829.4375
v -365.168 9.390625 -720.1445
v -389.4648 9.390625 -757.1797
v -364.1406 9.390625 -724.1875
v -365.168 9.390625 -720.1445
v -364.1406 9.390625 -724.1875
v -311.4766 9.390625 -755.3672
v -364.1406 9.390625 -724.1875
v -389.4648 9.390625 -757.1797
v -387.4141 9.390625 -758.5254
v -389.4648 9.390625 -757.1797
v -410.2773 9.390625 -792.252
v -387.4141 9.390625 -758.5254
v -410.2773 9.390625 -792.252
v -409.5625 9.390625 -795.3262
v -408.2578 9.390625 -793.4238
v -413.7617 9.390625 -794.2148
v -360.0703 9.390625 -829.4375
v -409.5625 9.390625 -795.3262
v -389.4648 9.390625 -757.1797
v -413.7617 9.390625 -794.2148
v -410.2773 9.390625 -792.252
v -410.2773 9.390625 -792.252
v -408.2578 9.390625 -793.4238
v -410.2773 81.67969 -792.252
v -408.2578 81.67969 -793.4238
v -322.6445 87.72266 -758.9316
v -356.4688 87.72266 -810.2793
v -342 81.67969 -788.3164
v -397.1523 81.67969 -783.4785
v -356.4688 81.67969 -810.2793
v -397.1523 87.72266 -783.4785
v -356.4688 87.72266 -810.2793
v -363.3281 87.72266 -732.1289
v -363.3281 81.67969 -732.1289
v -382.7383 81.67969 -761.5938
v -359.3828 87.72266 -751.8652
v -359.3828 91.4375 -751.8652
v -342.4922 91.4375 -763.3574
v -342.4922 87.72266 -763.3574
v -342 81.67969 -788.3164
v -356.4688 87.72266 -810.2793
v -356.4688 81.67969 -810.2793
v -322.6445 87.72266 -758.9316
v -342 81.67969 -788.3164
v -322.6445 81.67969 -758.9316
v -382.7383 81.67969 -761.5938
v -397.1523 81.67969 -783.4785
v -397.1523 87.72266 -783.4785
v -363.0156 9.390625 -825.4824
v -361.6289 81.67969 -823.4766
v -363.0156 81.67969 -825.4824
v -361.6289 9.390625 -823.4766
v -409.5625 9.390625 -795.3262
v -363.0156 9.390625 -825.4824
v -409.5625 81.67969 -795.3262
v -363.0156 81.67969 -825.4824
v -409.5625 81.67969 -795.3262
v -408.2578 81.67969 -793.4238
v -409.5625 9.390625 -795.3262
v -408.2578 9.390625 -793.4238
v -363.3281 87.72266 -732.1289
v -382.7383 81.67969 -761.5938
v -397.1523 87.72266 -783.4785
v -363.3281 81.67969 -732.1289
v -363.3281 87.72266 -732.1289
v -322.6445 87.72266 -758.9316
v -322.6445 81.67969 -758.9316
v -361.6289 9.390625 -823.4766
v -359.6914 9.390625 -824.6992
v -361.6289 81.67969 -823.4766
v -359.6914 81.67969 -824.6992
v -335.7734 3.207031 -792.4023
v -335.7734 9.390625 -792.4023
v -360.0703 9.390625 -829.4375
v -360.0703 3.207031 -829.4375
v -413.7617 9.390625 -794.2148
v -413.7617 3.207031 -794.2148
v -386.9141 3.207031 -811.8262
v -386.9141 3.207031 -811.8262
v -360.0703 3.207031 -829.4375
v -360.0703 9.390625 -829.4375
v -311.4766 3.207031 -755.3672
v -311.4766 9.390625 -755.3672
v -335.7734 9.390625 -792.4023
v -335.7734 3.207031 -792.4023
v -413.7617 9.390625 -794.2148
v -386.9141 3.207031 -811.8262
v -360.0703 9.390625 -829.4375
v -342.4922 87.72266 -763.3574
v -342.4922 91.4375 -763.3574
v -354.6992 91.4375 -781.3008
v -354.6992 87.72266 -781.3008
v -371.5898 87.72266 -769.8086
v -354.6992 87.72266 -781.3008
v -371.5898 91.4375 -769.8086
v -354.6992 91.4375 -781.3008
v -359.3828 87.72266 -751.8652
v -371.5898 87.72266 -769.8086
v -359.3828 91.4375 -751.8652
v -371.5898 91.4375 -769.8086
v -389.4648 3.207031 -757.1797
v -413.7617 3.207031 -794.2148
v -389.4648 9.390625 -757.1797
v -413.7617 9.390625 -794.2148
v -365.168 3.207031 -720.1445
v -389.4648 3.207031 -757.1797
v -365.168 9.390625 -720.1445
v -389.4648 9.390625 -757.1797
v -365.168 3.207031 -720.1445
v -365.168 9.390625 -720.1445
v -311.4766 9.390625 -755.3672
v -311.4766 3.207031 -755.3672
vn 0 0.5773503 0
vn 0 0.5773503 0
vn 0 0.5773503 0
vn 0 0.5773503 0
vn 0 0.5773503 0
vn 0 0.5773503 0
vn 0 0.5773503 0
vn 0 0.5773503 0
vn 0 0.5773503 0
vn 0 0.5773503 0
vn 0 0.5773503 0
vn 0 0.5773503 0
vn 0 0.5773503 0
vn 0 0.5773503 0
vn 0 0.5773503 0
vn 0 0.5773503 0
vn 0 0.5773503 0
vn 0 0.5773503 0
vn 0 0.5773503 0
vn 0 0.5773503 0
vn 0 0.5773503 0
vn 0 0.5773503 0
vn 0 0.5773503 0
vn 0 0.5773503 0
vn 0 0.5773503 0
vn 0 0.5773503 0
vn 0 0.5773503 0
vn 0 0.5773503 0
vn 0 0.5773503 0
vn 0 0.5773503 0
vn 0 0.5773503 0
vn 0 0.5773503 0
vn 0 0.5773503 0
vn 0 0.5773503 0
vn 0 0.5773503 0
vn 0 0.5773503 0
vn 0 0.5773503 0
vn 0 0.5773503 0
vn 0 0.5773503 0
vn 0 0.5773503 0
vn 0 0.5773503 0
vn 0 0.5773503 0
vn 0 0.5773503 0
vn 0 0.5773503 0
vn 0 0.5773503 0
vn 0 0.5773503 0
vn 0 0.5773503 0
vn 0 0.5773503 0
vn 0 0.5773503 0
vn 0 0.5773503 0
vn 0 0.5773503 0
vn 0 0.5773503 0
vn 0 0.5773503 0
vn 0 0.5773503 0
vn 0 0.5773503 0
vn 0 0.5773503 0
vn 0 0.5773503 0
vn 0 0.5773503 0
vn 0 0.5773503 0
vn 0 0.5773503 0
vn 0 0.5773503 0
vn 0 0.5773503 0
vn 0 0.5773503 0
vn 0 0.5773503 0
vn 0 0.5773503 0
vn 0 0.5773503 0
vn 0 0.5773503 0
vn 0 0.5773503 0
vn 0 0.5773503 0
vn 0 0.5773503 0
vn 0 0.5773503 0
vn 0 0.5773503 0
vn 0 0.5773503 0
vn 0 0.5773503 0
vn 0 0.5773503 0
vn 0 0.5773503 0
vn 0 0.5773503 0
vn 0 0.5773503 0
vn 0 0.5773503 0
vn 0 0.5773503 0
vn 0 0.5773503 0
vn 0 0.5773503 0
vn 0 0.5773503 0
vn 0 0.5773503 0
vn 0 0.5773503 0
vn 0 0.5773503 0
vn 0 0.5773503 0
vn 0 0.5773503 0
vn 0 0.5773503 0
vn 0 0.5773503 0
vn 0 0.5773503 0
vn 0 0.5773503 0
vn 0 0.5773503 0
vn 0 0.5773503 0
vn 0 0.5773503 0
vn 0 0.5773503 0
vn 0 0.5773503 0
vn 0 0.5773503 0
vn 0 0.5773503 0
vn 0 0.5773503 0
vn 0 0.5773503 0
vn 0 0.5773503 0
vn 0 0.5773503 0
vn 0 0.5773503 0
vn 0 0.5773503 0
vn 0 0.5773503 0
vn 0 0.5773503 0
vn 0 0.5773503 0
vn 0 0.5773503 0
vn 0 0.5773503 0
vn 0 0.5773503 0
vn 0 0.5773503 0
vn 0 0.5773503 0
vn 0 0.5773503 0
vn 0 0.5773503 0
vn 0 0.5773503 0
vn 0 0.5773503 0
vn 0 0.5773503 0
vn 0 0.5773503 0
vn 0 0.5773503 0
vn 0 0.5773503 0
vn 0 0.5773503 0
vn 0 0.5773503 0
vn 0 0.5773503 0
vn -0.2897682 0 -0.4993673
vn -0.2897682 0 -0.4993673
vn -0.2897682 0 -0.4993673
vn -0.2897682 0 -0.4993673
vn 0.4821434 9.136587E-05 -0.3176021
vn 0.4821434 9.136587E-05 -0.3176021
vn 0.4821434 9.136587E-05 -0.317602
vn -0.3176128 0 -0.4821363
vn -0.3176127 0 -0.4821363
vn -0.3176127 0 -0.4821363
vn -0.3176128 0 -0.4821363
vn -0.4821374 0 0.3176111
vn -0.4821374 0 0.3176111
vn -0.4821374 0 0.3176112
vn 0.3247766 0 0.47734
vn 0.3247766 0 0.47734
vn 0.3247766 0 0.47734
vn 0.3247766 0 0.47734
vn 0.4821318 0 -0.3176196
vn 0.4821318 0 -0.3176196
vn 0.4821318 0 -0.3176196
vn 0.482152 0 -0.317589
vn 0.482152 0 -0.317589
vn 0.482152 0 -0.317589
vn -0.4821644 0 0.3175701
vn -0.4821644 0 0.3175701
vn -0.4821644 0 0.3175701
vn 0.4749092 0 -0.3283209
vn 0.4749092 0 -0.3283209
vn 0.4749092 0 -0.3283209
vn 0.4749092 0 -0.3283209
vn -0.3139227 0 -0.484547
vn -0.3139227 0 -0.484547
vn -0.3139227 0 -0.484547
vn -0.3139227 0 -0.484547
vn -0.4761313 0 0.326546
vn -0.4761313 0 0.3265459
vn -0.4761313 0 0.3265459
vn -0.4761313 0 0.326546
vn -0.4821489 0.0001222685 0.3175936
vn -0.4821489 0.0001222685 0.3175936
vn -0.4821489 0.0001222685 0.3175936
vn 0.317629 0 0.4821257
vn 0.317629 0 0.4821257
vn 0.317629 0 0.4821257
vn 0.317629 0 0.4821257
vn -0.3081158 0 -0.4882602
vn -0.3081158 0 -0.4882602
vn -0.3081158 0 -0.4882602
vn -0.3081158 0 -0.4882602
vn 0.482737 0 -0.3166991
vn 0.482737 0 -0.3166991
vn 0.482737 0 -0.3166991
vn 0.482737 0 -0.3166991
vn -0.3166734 0 -0.4827539
vn -0.3166734 0 -0.4827539
vn -0.3166734 0 -0.4827539
vn -0.3167056 0 -0.4827328
vn -0.3167056 0 -0.4827328
vn -0.3167056 0 -0.4827328
vn 0.482737 0 -0.3166991
vn 0.482737 0 -0.3166991
vn 0.482737 0 -0.3166991
vn 0.482737 0 -0.3166991
vn -0.3166894 -0.0001001067 -0.4827433
vn -0.3166894 -0.0001001067 -0.4827433
vn -0.3166894 -0.0001001067 -0.4827433
vn 0.4773576 0 -0.3247507
vn 0.4773576 0 -0.3247507
vn 0.4773576 0 -0.3247507
vn 0.4773576 0 -0.3247507
vn -0.3247766 0 -0.47734
vn -0.3247766 0 -0.47734
vn -0.3247766 0 -0.47734
vn -0.3247766 0 -0.47734
vn -0.4773576 0 0.3247507
vn -0.4773576 0 0.3247507
vn -0.4773576 0 0.3247507
vn -0.4773576 0 0.3247507
vn -0.482737 0 0.3166991
vn -0.482737 0 0.3166991
vn -0.482737 0 0.3166991
vn -0.482737 0 0.3166991
vn -0.482737 0 0.3166991
vn -0.482737 0 0.3166991
vn -0.482737 0 0.3166991
vn -0.482737 0 0.3166991
vn 0.3166895 0 0.4827433
vn 0.3166895 0 0.4827433
vn 0.3166895 0 0.4827433
vn 0.3166895 0 0.4827433
vt 0.565719 0.271748
vt 0.758555 0.256229
vt 0.688274 0.242884
vt 0.688274 0.242884
vt 0.758555 0.256229
vt 0.741477 0.010763
vt 0.565719 0.271748
vt 0.688274 0.242884
vt 0.563596 0.248132
vt 0.544441 0.03505
vt 0.673489 0.028032
vt 0.542337 0.011647
vt 0.565719 0.271748
vt 0.759778 0.266142
vt 0.758555 0.256229
vt 0.542337 0.011647
vt 0.673489 0.028032
vt 0.741477 0.010763
vt 0.688274 0.242884
vt 0.741477 0.010763
vt 0.673489 0.028032
vt 0.398513 0.255081
vt 0.374709 0.04428
vt 0.341148 0.023216
vt 0.374709 0.04428
vt 0.544441 0.03505
vt 0.542337 0.011647
vt 0.341148 0.023216
vt 0.374709 0.04428
vt 0.542337 0.011647
vt 0.372358 0.277334
vt 0.565719 0.271748
vt 0.398513 0.255081
vt 0.372358 0.277334
vt 0.398513 0.255081
vt 0.341148 0.023216
vt 0.398513 0.255081
vt 0.565719 0.271748
vt 0.563596 0.248132
vt 0.000244 0.53329
vt 0.307316 0.567066
vt 0.18942 0.494772
vt 0.032278 0.325031
vt 0.207012 0.407038
vt 0.350104 0.356256
vt 0.207012 0.407038
vt 0.307316 0.567066
vt 0.350104 0.356256
vt 0.18942 0.494772
vt 0.307316 0.567066
vt 0.207012 0.407038
vt 0.329576 0.064444
vt 0.302041 0.313932
vt 0.309734 0.324533
vt 0.302041 0.313932
vt 0.159897 0.296373
vt 0.158873 0.30614
vt 0.769214 0.622208
vt 0.679737 0.567766
vt 0.713976 0.708192
vt 0.624176 0.655356
vt 0.542337 0.011647
vt 0.741477 0.010763
vt 0.740634 0.000244
vt 0.758555 0.256229
vt 0.753676 0.010356
vt 0.741477 0.010763
vt 0.758555 0.256229
vt 0.769694 0.255955
vt 0.753676 0.010356
vt 0.080571 0.48176
vt 0.09657 0.394362
vt 0.032278 0.325031
vt 0.000244 0.53329
vt 0.080571 0.48176
vt 0.032278 0.325031
vt 0.000244 0.53329
vt 0.18942 0.494772
vt 0.080571 0.48176
vt 0.032278 0.325031
vt 0.09657 0.394362
vt 0.207012 0.407038
vt 0.309734 0.324533
vt 0.302041 0.313932
vt 0.158873 0.30614
vt 0.016495 0.278658
vt 0.008408 0.267197
vt 0.000244 0.286799
vt 0.031016 0.019745
vt 0.000244 0.286799
vt 0.008408 0.267197
vt 0.040081 0.010756
vt 0.02771 0.000244
vt 0.031016 0.019745
vt 0.017318 0.26859
vt 0.008408 0.267197
vt 0.016495 0.278658
vt 0.159897 0.296373
vt 0.016495 0.278658
vt 0.158873 0.30614
vt 0.158873 0.30614
vt 0.016495 0.278658
vt 0.000244 0.286799
vt 0.340535 0.052798
vt 0.18811 0.027191
vt 0.329576 0.064444
vt 0.340535 0.052798
vt 0.329576 0.064444
vt 0.309734 0.324533
vt 0.329576 0.064444
vt 0.18811 0.027191
vt 0.186977 0.037999
vt 0.18811 0.027191
vt 0.040081 0.010756
vt 0.186977 0.037999
vt 0.040081 0.010756
vt 0.031016 0.019745
vt 0.039542 0.02137
vt 0.02771 0.000244
vt 0.000244 0.286799
vt 0.031016 0.019745
vt 0.18811 0.027191
vt 0.02771 0.000244
vt 0.040081 0.010756
vt 0.784371 0.783217
vt 0.78654 0.790859
vt 0.974111 0.782906
vt 0.976297 0.79099
vt 0.000244 0.766916
vt 0.227985 0.765953
vt 0.13089 0.749713
vt 0.43442 0.749206
vt 0.229093 0.74934
vt 0.43547 0.765652
vt 0.22906 0.765599
vt 0.997377 0.586231
vt 0.996886 0.569041
vt 0.866156 0.568305
vt 0.796581 0.767654
vt 0.797316 0.778075
vt 0.879791 0.777988
vt 0.878799 0.767521
vt 0.13089 0.749713
vt 0.227985 0.765953
vt 0.228569 0.749206
vt 0.000244 0.766916
vt 0.13089 0.749713
vt 0.001879 0.750381
vt 0.866156 0.568305
vt 0.770278 0.567766
vt 0.769719 0.584731
vt 0.591941 0.783151
vt 0.783687 0.791873
vt 0.783611 0.782906
vt 0.592103 0.791638
vt 0.904527 0.325031
vt 0.682784 0.333279
vt 0.920589 0.510097
vt 0.684741 0.516407
vt 0.591082 0.792457
vt 0.591344 0.782906
vt 0.40757 0.792164
vt 0.407727 0.783178
vt 0.997377 0.586231
vt 0.866156 0.568305
vt 0.769719 0.584731
vt 0.43785 0.749206
vt 0.436142 0.765445
vt 0.629243 0.765639
vt 0.630001 0.749222
vt 0.000473 0.783231
vt 0.000244 0.793113
vt 0.168023 0.782906
vt 0.167674 0.793474
vt 0.776419 0.749214
vt 0.774964 0.764557
vt 0.921862 0.764679
vt 0.922697 0.749206
vt 0.223992 0.782287
vt 0.227405 0.767649
vt 0.115294 0.767585
vt 0.115294 0.767585
vt 0.004644 0.767521
vt 0.000244 0.781968
vt 0.63258 0.749221
vt 0.630525 0.764436
vt 0.774964 0.764557
vt 0.776419 0.749214
vt 0.223992 0.782287
vt 0.115294 0.767585
vt 0.000244 0.781968
vt 0.327255 0.782906
vt 0.326496 0.793123
vt 0.40634 0.793229
vt 0.406874 0.782966
vt 0.32587 0.783189
vt 0.25192 0.782906
vt 0.323729 0.79328
vt 0.249573 0.792953
vt 0.248664 0.782906
vt 0.168742 0.782962
vt 0.249028 0.793445
vt 0.168878 0.793455
vt 0.405718 0.767621
vt 0.228136 0.76772
vt 0.406574 0.782198
vt 0.228083 0.782153
vt 0.586864 0.767521
vt 0.405718 0.767621
vt 0.588664 0.782244
vt 0.406574 0.782198
vt 0.599239 0.767521
vt 0.589255 0.780291
vt 0.786663 0.781
vt 0.795893 0.768065
usemtl 53391550_bldg_6697_appearance_14100-bldg-120210-1.jpg
f 3/3/3 2/2/2 1/1/1
f 6/6/6 5/5/5 4/4/4
f 9/9/9 8/8/8 7/7/7
f 12/12/12 11/11/11 10/10/10
f 15/15/15 14/14/14 13/13/13
f 18/18/18 17/17/17 16/16/16
f 21/21/21 20/20/20 19/19/19
f 24/24/24 23/23/23 22/22/22
f 27/27/27 26/26/26 25/25/25
f 30/30/30 29/29/29 28/28/28
f 33/33/33 32/32/32 31/31/31
f 36/36/36 35/35/35 34/34/34
f 39/39/39 38/38/38 37/37/37
f 42/42/42 41/41/41 40/40/40
f 45/45/45 44/44/44 43/43/43
f 48/48/48 47/47/47 46/46/46
f 51/51/51 50/50/50 49/49/49
f 54/54/54 53/53/53 52/52/52
f 57/57/57 56/56/56 55/55/55
f 60/60/60 59/59/59 58/58/58
f 59/59/59 60/60/60 61/61/61
f 64/64/64 63/63/63 62/62/62
f 67/67/67 66/66/66 65/65/65
f 70/70/70 69/69/69 68/68/68
f 73/73/73 72/72/72 71/71/71
f 76/76/76 75/75/75 74/74/74
f 79/79/79 78/78/78 77/77/77
f 82/82/82 81/81/81 80/80/80
f 85/85/85 84/84/84 83/83/83
f 88/88/88 87/87/87 86/86/86
f 91/91/91 90/90/90 89/89/89
f 94/94/94 93/93/93 92/92/92
f 97/97/97 96/96/96 95/95/95
f 100/100/100 99/99/99 98/98/98
f 103/103/103 102/102/102 101/101/101
f 106/106/106 105/105/105 104/104/104
f 109/109/109 108/108/108 107/107/107
f 112/112/112 111/111/111 110/110/110
f 115/115/115 114/114/114 113/113/113
f 118/118/118 117/117/117 116/116/116
f 121/121/121 120/120/120 119/119/119
f 124/124/124 123/123/123 122/122/122
f 127/127/127 126/126/126 125/125/125
f 127/127/127 128/128/128 126/126/126
f 131/131/131 130/130/130 129/129/129
f 134/134/134 133/133/133 132/132/132
f 134/134/134 135/135/135 133/133/133
f 138/138/138 137/137/137 136/136/136
f 141/141/141 140/140/140 139/139/139
f 142/142/142 141/141/141 139/139/139
f 145/145/145 144/144/144 143/143/143
f 148/148/148 147/147/147 146/146/146
f 151/151/151 150/150/150 149/149/149
f 154/154/154 153/153/153 152/152/152
f 152/152/152 153/153/153 155/155/155
f 158/158/158 157/157/157 156/156/156
f 158/158/158 159/159/159 157/157/157
f 162/162/162 161/161/161 160/160/160
f 162/162/162 163/163/163 161/161/161
f 166/166/166 165/165/165 164/164/164
f 169/169/169 168/168/168 167/167/167
f 170/170/170 169/169/169 167/167/167
f 173/173/173 172/172/172 171/171/171
f 173/173/173 174/174/174 172/172/172
f 177/177/177 176/176/176 175/175/175
f 178/178/178 177/177/177 175/175/175
f 181/181/181 180/180/180 179/179/179
f 184/184/184 183/183/183 182/182/182
f 187/187/187 186/186/186 185/185/185
f 188/188/188 187/187/187 185/185/185
f 191/191/191 190/190/190 189/189/189
f 194/194/194 193/193/193 192/192/192
f 195/195/195 194/194/194 192/192/192
f 198/198/198 197/197/197 196/196/196
f 198/198/198 199/199/199 197/197/197
f 202/202/202 201/201/201 200/200/200
f 201/201/201 202/202/202 203/203/203
f 206/206/206 205/205/205 204/204/204
f 205/205/205 206/206/206 207/207/207
f 210/210/210 209/209/209 208/208/208
f 209/209/209 210/210/210 211/211/211
f 214/214/214 213/213/213 212/212/212
f 215/215/215 214/214/214 212/212/212
